<svg aria-hidden="true" style="position: absolute; width: 0; height: 0; overflow: hidden;" version="1.1"
     xmlns="http://www.w3.org/2000/svg" xmlns:xlink="http://www.w3.org/1999/xlink">
    <defs>
        <symbol id="icon-facebook" viewBox="0 0 32 32">
            <path d="M30.264 0.368h-28.564c-0.001 0-0.002 0-0.003 0-0.685 0-1.241 0.556-1.241 1.241 0 0 0 0 0 0v0 28.567c0 0.687 0.555 1.241 1.241 1.241h28.567c0.686 0 1.241-0.556 1.241-1.241v0-28.567c0-0.685-0.556-1.241-1.241-1.241v0zM26.678 9.431h-2.479c-1.945 0-2.321 0.924-2.321 2.282v2.992h4.642l-0.605 4.686h-4.038v12.027h-4.839v-12.024h-4.049v-4.689h4.049v-3.454c0-4.010 2.448-6.194 6.028-6.194 1.715 0 3.186 0.128 3.617 0.186v4.188h-0.004z"></path>
        </symbol>
        <symbol id="icon-twitter" viewBox="0 0 40 32">
            <path d="M39.023 4.658c-1.309 0.588-2.827 1.013-4.418 1.2l-0.073 0.007c1.613-0.97 2.826-2.465 3.414-4.244l0.016-0.055c-1.424 0.862-3.083 1.516-4.851 1.868l-0.098 0.016c-1.424-1.519-3.442-2.465-5.682-2.465-0.007 0-0.013 0-0.020 0h0.001c-0 0-0.001 0-0.001 0-4.307 0-7.798 3.491-7.798 7.798 0 0.002 0 0.004 0 0.006v-0c0 0.603 0.073 1.208 0.192 1.789-6.502-0.34-12.219-3.433-16.052-8.126l-0.032-0.040c-0.667 1.121-1.062 2.471-1.062 3.914 0 0.009 0 0.018 0 0.027v-0.001c0 0.001 0 0.003 0 0.004 0 2.698 1.368 5.075 3.449 6.478l0.028 0.018c-1.303-0.053-2.51-0.414-3.566-1.012l0.039 0.020v0.096c0 0.003 0 0.007 0 0.010 0 3.761 2.661 6.9 6.203 7.638l0.051 0.009c-0.616 0.167-1.323 0.263-2.053 0.265h-0.001c-0.524-0.005-1.035-0.048-1.533-0.126l0.059 0.008c1.030 3.122 3.893 5.347 7.284 5.411l0.008 0c-2.63 2.079-5.994 3.335-9.651 3.335-0.011 0-0.023 0-0.034-0h0.002c-0.654 0-1.257-0.023-1.885-0.096 3.373 2.194 7.5 3.499 11.931 3.499 0.017 0 0.035-0 0.052-0h-0.003c14.345 0 22.194-11.885 22.194-22.199 0-0.339 0-0.678-0.023-1.016 1.528-1.129 2.823-2.463 3.876-3.979l0.036-0.055z"></path>
        </symbol>
        <symbol id="icon-burger" viewBox="0 0 40 32">
            <path d="M0.248 2.666c0-1.472 1.194-2.666 2.666-2.666h34.42c1.473 0 2.667 1.194 2.667 2.667s-1.194 2.667-2.667 2.667v0h-34.42c-1.472 0-2.666-1.194-2.666-2.666 0-0.001 0-0.001 0-0.002v0zM0 16c0-1.472 1.194-2.666 2.666-2.666h34.668c1.472 0 2.666 1.194 2.666 2.666s-1.194 2.666-2.666 2.666h-34.668c-1.472 0-2.666-1.194-2.666-2.666v0zM0 29.334c0-1.474 1.194-2.668 2.666-2.668h34.668c1.473 0 2.667 1.194 2.667 2.667s-1.194 2.667-2.667 2.667v0h-34.668c-1.472 0-2.666-1.194-2.666-2.666v0z"></path>
        </symbol>
        <symbol id="icon-close" viewBox="0 0 22 28">
            <path d="M20.281 20.656c0 0.391-0.156 0.781-0.438 1.062l-2.125 2.125c-0.281 0.281-0.672 0.438-1.062 0.438s-0.781-0.156-1.062-0.438l-4.594-4.594-4.594 4.594c-0.281 0.281-0.672 0.438-1.062 0.438s-0.781-0.156-1.062-0.438l-2.125-2.125c-0.281-0.281-0.438-0.672-0.438-1.062s0.156-0.781 0.438-1.062l4.594-4.594-4.594-4.594c-0.281-0.281-0.438-0.672-0.438-1.062s0.156-0.781 0.438-1.062l2.125-2.125c0.281-0.281 0.672-0.438 1.062-0.438s0.781 0.156 1.062 0.438l4.594 4.594 4.594-4.594c0.281-0.281 0.672-0.438 1.062-0.438s0.781 0.156 1.062 0.438l2.125 2.125c0.281 0.281 0.438 0.672 0.438 1.062s-0.156 0.781-0.438 1.062l-4.594 4.594 4.594 4.594c0.281 0.281 0.438 0.672 0.438 1.062z"></path>
        </symbol>
    </defs>
</svg>
